<mxfile host="app.diagrams.net" modified="2023-03-05T11:58:09.935Z" agent="5.0 (Macintosh; Intel Mac OS X 10_15_7) AppleWebKit/537.36 (KHTML, like Gecko) Chrome/110.0.0.0 Safari/537.36" etag="LjTMMeQMal-8HP96bEoV" version="21.0.2" type="github">
  <diagram name="Page-1" id="2YBvvXClWsGukQMizWep">
    <mxGraphModel dx="1526" dy="382" grid="1" gridSize="10" guides="1" tooltips="1" connect="1" arrows="1" fold="1" page="1" pageScale="1" pageWidth="850" pageHeight="1100" math="0" shadow="0">
      <root>
        <mxCell id="0" />
        <mxCell id="1" parent="0" />
        <mxCell id="r59WrNXMarwCxPcRgeq0-1" value="Client" style="rounded=1;whiteSpace=wrap;html=1;" vertex="1" parent="1">
          <mxGeometry x="-760" width="100" height="30" as="geometry" />
        </mxCell>
        <mxCell id="r59WrNXMarwCxPcRgeq0-2" value="Bootpay(다날)" style="rounded=1;whiteSpace=wrap;html=1;" vertex="1" parent="1">
          <mxGeometry x="-640" width="100" height="30" as="geometry" />
        </mxCell>
        <mxCell id="r59WrNXMarwCxPcRgeq0-3" value="Node.js Server" style="rounded=1;whiteSpace=wrap;html=1;" vertex="1" parent="1">
          <mxGeometry x="-460" width="100" height="30" as="geometry" />
        </mxCell>
        <mxCell id="r59WrNXMarwCxPcRgeq0-4" value="" style="rounded=1;whiteSpace=wrap;html=1;" vertex="1" parent="1">
          <mxGeometry x="-230" width="100" height="30" as="geometry" />
        </mxCell>
        <mxCell id="r59WrNXMarwCxPcRgeq0-5" value="Check Account&lt;br&gt;Server&lt;br&gt;" style="rounded=1;whiteSpace=wrap;html=1;" vertex="1" parent="1">
          <mxGeometry x="-110" width="100" height="30" as="geometry" />
        </mxCell>
        <mxCell id="r59WrNXMarwCxPcRgeq0-6" value="" style="rounded=0;whiteSpace=wrap;html=1;" vertex="1" parent="1">
          <mxGeometry x="-750" y="247" width="320" height="150" as="geometry" />
        </mxCell>
        <mxCell id="r59WrNXMarwCxPcRgeq0-8" value="Bootpay" style="shape=loopLimit;whiteSpace=wrap;html=1;direction=south;rounded=0;" vertex="1" parent="1">
          <mxGeometry x="-750" y="247" width="90" height="30" as="geometry" />
        </mxCell>
        <mxCell id="r59WrNXMarwCxPcRgeq0-9" value="" style="rounded=0;whiteSpace=wrap;html=1;" vertex="1" parent="1">
          <mxGeometry x="-705" y="287" width="10" height="90" as="geometry" />
        </mxCell>
        <mxCell id="r59WrNXMarwCxPcRgeq0-10" value="" style="rounded=0;whiteSpace=wrap;html=1;" vertex="1" parent="1">
          <mxGeometry x="-585" y="286" width="10" height="91" as="geometry" />
        </mxCell>
        <mxCell id="r59WrNXMarwCxPcRgeq0-14" value="" style="endArrow=classic;html=1;rounded=0;entryX=0.75;entryY=0;entryDx=0;entryDy=0;" edge="1" parent="1" target="r59WrNXMarwCxPcRgeq0-10">
          <mxGeometry width="50" height="50" relative="1" as="geometry">
            <mxPoint x="-705" y="287" as="sourcePoint" />
            <mxPoint x="-645" y="287" as="targetPoint" />
          </mxGeometry>
        </mxCell>
        <mxCell id="r59WrNXMarwCxPcRgeq0-16" value="" style="endArrow=classic;html=1;rounded=0;edgeStyle=orthogonalEdgeStyle;" edge="1" parent="1">
          <mxGeometry width="50" height="50" relative="1" as="geometry">
            <mxPoint x="-575" y="287" as="sourcePoint" />
            <mxPoint x="-575" y="318" as="targetPoint" />
            <Array as="points">
              <mxPoint x="-535" y="287" />
              <mxPoint x="-535" y="318" />
              <mxPoint x="-575" y="318" />
            </Array>
          </mxGeometry>
        </mxCell>
        <mxCell id="r59WrNXMarwCxPcRgeq0-19" value="check self identity by bootpay" style="text;strokeColor=none;align=center;fillColor=none;html=1;verticalAlign=middle;whiteSpace=wrap;rounded=0;" vertex="1" parent="1">
          <mxGeometry x="-540" y="286" width="110" height="30" as="geometry" />
        </mxCell>
        <mxCell id="r59WrNXMarwCxPcRgeq0-20" value="" style="endArrow=classic;html=1;rounded=0;" edge="1" parent="1">
          <mxGeometry width="50" height="50" relative="1" as="geometry">
            <mxPoint x="-585" y="318" as="sourcePoint" />
            <mxPoint x="-685" y="318" as="targetPoint" />
          </mxGeometry>
        </mxCell>
        <mxCell id="r59WrNXMarwCxPcRgeq0-21" value="return otp number" style="text;strokeColor=none;align=center;fillColor=none;html=1;verticalAlign=middle;whiteSpace=wrap;rounded=0;" vertex="1" parent="1">
          <mxGeometry x="-685" y="290" width="100" height="30" as="geometry" />
        </mxCell>
        <mxCell id="r59WrNXMarwCxPcRgeq0-22" value="" style="endArrow=classic;html=1;rounded=0;" edge="1" parent="1">
          <mxGeometry width="50" height="50" relative="1" as="geometry">
            <mxPoint x="-695" y="337" as="sourcePoint" />
            <mxPoint x="-600" y="337" as="targetPoint" />
          </mxGeometry>
        </mxCell>
        <mxCell id="r59WrNXMarwCxPcRgeq0-23" value="post /auth/check" style="text;strokeColor=none;align=center;fillColor=none;html=1;verticalAlign=middle;whiteSpace=wrap;rounded=0;" vertex="1" parent="1">
          <mxGeometry x="-695" y="336" width="100" height="30" as="geometry" />
        </mxCell>
        <mxCell id="r59WrNXMarwCxPcRgeq0-24" value="" style="endArrow=classic;html=1;rounded=0;edgeStyle=orthogonalEdgeStyle;" edge="1" parent="1">
          <mxGeometry width="50" height="50" relative="1" as="geometry">
            <mxPoint x="-575" y="337" as="sourcePoint" />
            <mxPoint x="-575" y="368" as="targetPoint" />
            <Array as="points">
              <mxPoint x="-535" y="337" />
              <mxPoint x="-535" y="368" />
              <mxPoint x="-575" y="368" />
            </Array>
          </mxGeometry>
        </mxCell>
        <mxCell id="r59WrNXMarwCxPcRgeq0-25" value="check &amp;amp; verificate OTP number" style="text;strokeColor=none;align=center;fillColor=none;html=1;verticalAlign=middle;whiteSpace=wrap;rounded=0;" vertex="1" parent="1">
          <mxGeometry x="-540" y="336" width="110" height="30" as="geometry" />
        </mxCell>
        <mxCell id="r59WrNXMarwCxPcRgeq0-26" value="return status" style="text;strokeColor=none;align=center;fillColor=none;html=1;verticalAlign=middle;whiteSpace=wrap;rounded=0;" vertex="1" parent="1">
          <mxGeometry x="-691" y="353" width="100" height="30" as="geometry" />
        </mxCell>
        <mxCell id="r59WrNXMarwCxPcRgeq0-27" value="" style="endArrow=classic;html=1;rounded=0;" edge="1" parent="1">
          <mxGeometry width="50" height="50" relative="1" as="geometry">
            <mxPoint x="-586" y="377" as="sourcePoint" />
            <mxPoint x="-686" y="377" as="targetPoint" />
          </mxGeometry>
        </mxCell>
        <mxCell id="r59WrNXMarwCxPcRgeq0-29" value="User&lt;br&gt;Verification" style="shape=note;whiteSpace=wrap;html=1;backgroundOutline=1;darkOpacity=0.05;" vertex="1" parent="1">
          <mxGeometry x="-850" y="432" width="110" height="40" as="geometry" />
        </mxCell>
        <mxCell id="r59WrNXMarwCxPcRgeq0-31" value="" style="rounded=0;whiteSpace=wrap;html=1;" vertex="1" parent="1">
          <mxGeometry x="-715" y="424" width="10" height="56" as="geometry" />
        </mxCell>
        <mxCell id="r59WrNXMarwCxPcRgeq0-32" value="" style="rounded=0;whiteSpace=wrap;html=1;" vertex="1" parent="1">
          <mxGeometry x="-401" y="50" width="10" height="469" as="geometry" />
        </mxCell>
        <mxCell id="r59WrNXMarwCxPcRgeq0-33" value="" style="endArrow=classic;html=1;rounded=0;edgeStyle=orthogonalEdgeStyle;exitX=-0.096;exitY=0.97;exitDx=0;exitDy=0;exitPerimeter=0;" edge="1" parent="1" source="r59WrNXMarwCxPcRgeq0-9">
          <mxGeometry width="50" height="50" relative="1" as="geometry">
            <mxPoint x="-710" y="374" as="sourcePoint" />
            <mxPoint x="-716" y="424" as="targetPoint" />
            <Array as="points">
              <mxPoint x="-736" y="374" />
              <mxPoint x="-736" y="424" />
            </Array>
          </mxGeometry>
        </mxCell>
        <mxCell id="r59WrNXMarwCxPcRgeq0-34" value="passing receipt_id" style="text;strokeColor=none;align=center;fillColor=none;html=1;verticalAlign=middle;whiteSpace=wrap;rounded=0;" vertex="1" parent="1">
          <mxGeometry x="-850" y="397" width="112" height="27" as="geometry" />
        </mxCell>
        <mxCell id="r59WrNXMarwCxPcRgeq0-35" value="" style="endArrow=classic;html=1;rounded=0;entryX=0;entryY=0.5;entryDx=0;entryDy=0;" edge="1" parent="1">
          <mxGeometry width="50" height="50" relative="1" as="geometry">
            <mxPoint x="-705" y="424" as="sourcePoint" />
            <mxPoint x="-411" y="422" as="targetPoint" />
          </mxGeometry>
        </mxCell>
        <mxCell id="r59WrNXMarwCxPcRgeq0-36" value="post /auth/confirm/authenticate" style="edgeLabel;html=1;align=center;verticalAlign=middle;resizable=0;points=[];" vertex="1" connectable="0" parent="r59WrNXMarwCxPcRgeq0-35">
          <mxGeometry x="-0.1891" y="-1" relative="1" as="geometry">
            <mxPoint as="offset" />
          </mxGeometry>
        </mxCell>
        <mxCell id="r59WrNXMarwCxPcRgeq0-41" value="" style="rounded=0;whiteSpace=wrap;html=1;" vertex="1" parent="1">
          <mxGeometry x="-717" y="40" width="10" height="40" as="geometry" />
        </mxCell>
        <mxCell id="r59WrNXMarwCxPcRgeq0-42" value="User&lt;br&gt;Signup" style="shape=note;whiteSpace=wrap;html=1;backgroundOutline=1;darkOpacity=0.05;" vertex="1" parent="1">
          <mxGeometry x="-850" y="50" width="70" height="40" as="geometry" />
        </mxCell>
        <mxCell id="r59WrNXMarwCxPcRgeq0-45" value="" style="endArrow=classic;html=1;rounded=0;" edge="1" parent="1">
          <mxGeometry width="50" height="50" relative="1" as="geometry">
            <mxPoint x="-707" y="50" as="sourcePoint" />
            <mxPoint x="-420" y="50" as="targetPoint" />
          </mxGeometry>
        </mxCell>
        <mxCell id="r59WrNXMarwCxPcRgeq0-46" value="post /auth/signup" style="text;strokeColor=none;align=center;fillColor=none;html=1;verticalAlign=middle;whiteSpace=wrap;rounded=0;" vertex="1" parent="1">
          <mxGeometry x="-620" y="40" width="100" height="8" as="geometry" />
        </mxCell>
        <mxCell id="r59WrNXMarwCxPcRgeq0-47" value="" style="endArrow=classic;html=1;rounded=0;edgeStyle=orthogonalEdgeStyle;" edge="1" parent="1">
          <mxGeometry width="50" height="50" relative="1" as="geometry">
            <mxPoint x="-391" y="51" as="sourcePoint" />
            <mxPoint x="-390" y="70" as="targetPoint" />
            <Array as="points">
              <mxPoint x="-351" y="51" />
              <mxPoint x="-351" y="70" />
            </Array>
          </mxGeometry>
        </mxCell>
        <mxCell id="r59WrNXMarwCxPcRgeq0-48" value="check&amp;amp;send verificationLink" style="text;strokeColor=none;align=center;fillColor=none;html=1;verticalAlign=middle;whiteSpace=wrap;rounded=0;" vertex="1" parent="1">
          <mxGeometry x="-360" y="48" width="110" height="25" as="geometry" />
        </mxCell>
        <mxCell id="r59WrNXMarwCxPcRgeq0-49" value="" style="endArrow=classic;html=1;rounded=0;exitX=-0.236;exitY=0.102;exitDx=0;exitDy=0;exitPerimeter=0;" edge="1" parent="1">
          <mxGeometry width="50" height="50" relative="1" as="geometry">
            <mxPoint x="-410.9999999999999" y="69.96800000000002" as="sourcePoint" />
            <mxPoint x="-700" y="70" as="targetPoint" />
          </mxGeometry>
        </mxCell>
        <mxCell id="r59WrNXMarwCxPcRgeq0-50" value="get token to confirm check" style="text;strokeColor=none;align=center;fillColor=none;html=1;verticalAlign=middle;whiteSpace=wrap;rounded=0;" vertex="1" parent="1">
          <mxGeometry x="-660" y="58" width="160" height="10" as="geometry" />
        </mxCell>
        <mxCell id="r59WrNXMarwCxPcRgeq0-53" value="User&lt;br&gt;Login" style="shape=note;whiteSpace=wrap;html=1;backgroundOutline=1;darkOpacity=0.05;" vertex="1" parent="1">
          <mxGeometry x="-850" y="100" width="70" height="40" as="geometry" />
        </mxCell>
        <mxCell id="r59WrNXMarwCxPcRgeq0-54" value="" style="rounded=0;whiteSpace=wrap;html=1;" vertex="1" parent="1">
          <mxGeometry x="-717" y="100" width="10" height="20" as="geometry" />
        </mxCell>
        <mxCell id="r59WrNXMarwCxPcRgeq0-55" value="" style="endArrow=classic;html=1;rounded=0;exitX=0.952;exitY=0.167;exitDx=0;exitDy=0;exitPerimeter=0;" edge="1" parent="1" source="r59WrNXMarwCxPcRgeq0-54">
          <mxGeometry width="50" height="50" relative="1" as="geometry">
            <mxPoint x="-700" y="102" as="sourcePoint" />
            <mxPoint x="-420" y="102" as="targetPoint" />
          </mxGeometry>
        </mxCell>
        <mxCell id="r59WrNXMarwCxPcRgeq0-56" value="post /auth/login&amp;nbsp; email,username,password&amp;nbsp;" style="text;strokeColor=none;align=center;fillColor=none;html=1;verticalAlign=middle;whiteSpace=wrap;rounded=0;" vertex="1" parent="1">
          <mxGeometry x="-711" y="90" width="310" height="10" as="geometry" />
        </mxCell>
        <mxCell id="r59WrNXMarwCxPcRgeq0-57" value="" style="endArrow=classic;html=1;rounded=0;edgeStyle=orthogonalEdgeStyle;" edge="1" parent="1">
          <mxGeometry width="50" height="50" relative="1" as="geometry">
            <mxPoint x="-391" y="103" as="sourcePoint" />
            <mxPoint x="-390" y="122" as="targetPoint" />
            <Array as="points">
              <mxPoint x="-351" y="103" />
              <mxPoint x="-351" y="122" />
            </Array>
          </mxGeometry>
        </mxCell>
        <mxCell id="r59WrNXMarwCxPcRgeq0-58" value="generateJWT" style="text;strokeColor=none;align=center;fillColor=none;html=1;verticalAlign=middle;whiteSpace=wrap;rounded=0;" vertex="1" parent="1">
          <mxGeometry x="-345" y="103.5" width="87" height="13" as="geometry" />
        </mxCell>
        <mxCell id="r59WrNXMarwCxPcRgeq0-59" value="" style="endArrow=classic;html=1;rounded=0;exitX=-0.236;exitY=0.102;exitDx=0;exitDy=0;exitPerimeter=0;" edge="1" parent="1">
          <mxGeometry width="50" height="50" relative="1" as="geometry">
            <mxPoint x="-410.9999999999999" y="119.96800000000002" as="sourcePoint" />
            <mxPoint x="-700" y="120" as="targetPoint" />
          </mxGeometry>
        </mxCell>
        <mxCell id="r59WrNXMarwCxPcRgeq0-60" value="return user, token" style="text;strokeColor=none;align=center;fillColor=none;html=1;verticalAlign=middle;whiteSpace=wrap;rounded=0;" vertex="1" parent="1">
          <mxGeometry x="-650" y="110" width="160" height="10" as="geometry" />
        </mxCell>
        <mxCell id="r59WrNXMarwCxPcRgeq0-62" value="" style="rounded=0;whiteSpace=wrap;html=1;" vertex="1" parent="1">
          <mxGeometry x="-717" y="143" width="10" height="20" as="geometry" />
        </mxCell>
        <mxCell id="r59WrNXMarwCxPcRgeq0-63" value="social" style="text;strokeColor=none;align=center;fillColor=none;html=1;verticalAlign=middle;whiteSpace=wrap;rounded=0;" vertex="1" parent="1">
          <mxGeometry x="-760" y="141" width="38" height="22" as="geometry" />
        </mxCell>
        <mxCell id="r59WrNXMarwCxPcRgeq0-64" value="email&lt;br&gt;" style="text;strokeColor=none;align=center;fillColor=none;html=1;verticalAlign=middle;whiteSpace=wrap;rounded=0;" vertex="1" parent="1">
          <mxGeometry x="-760" y="97" width="38" height="20" as="geometry" />
        </mxCell>
        <mxCell id="r59WrNXMarwCxPcRgeq0-67" value="" style="endArrow=classic;html=1;rounded=0;exitX=0.952;exitY=0.167;exitDx=0;exitDy=0;exitPerimeter=0;" edge="1" parent="1">
          <mxGeometry width="50" height="50" relative="1" as="geometry">
            <mxPoint x="-707" y="145" as="sourcePoint" />
            <mxPoint x="-420" y="144" as="targetPoint" />
          </mxGeometry>
        </mxCell>
        <mxCell id="r59WrNXMarwCxPcRgeq0-68" value="post /google/callback" style="text;strokeColor=none;align=center;fillColor=none;html=1;verticalAlign=middle;whiteSpace=wrap;rounded=0;" vertex="1" parent="1">
          <mxGeometry x="-711" y="132" width="310" height="10" as="geometry" />
        </mxCell>
        <mxCell id="r59WrNXMarwCxPcRgeq0-69" value="" style="endArrow=classic;html=1;rounded=0;exitX=-0.236;exitY=0.102;exitDx=0;exitDy=0;exitPerimeter=0;" edge="1" parent="1">
          <mxGeometry width="50" height="50" relative="1" as="geometry">
            <mxPoint x="-410.9999999999999" y="161.96800000000002" as="sourcePoint" />
            <mxPoint x="-700" y="162" as="targetPoint" />
          </mxGeometry>
        </mxCell>
        <mxCell id="r59WrNXMarwCxPcRgeq0-70" value="return result: email, username,password_before, photo" style="text;strokeColor=none;align=center;fillColor=none;html=1;verticalAlign=middle;whiteSpace=wrap;rounded=0;" vertex="1" parent="1">
          <mxGeometry x="-691" y="170" width="250" height="10" as="geometry" />
        </mxCell>
        <mxCell id="r59WrNXMarwCxPcRgeq0-71" value="" style="endArrow=classic;html=1;rounded=0;edgeStyle=orthogonalEdgeStyle;" edge="1" parent="1">
          <mxGeometry width="50" height="50" relative="1" as="geometry">
            <mxPoint x="-391" y="145" as="sourcePoint" />
            <mxPoint x="-390" y="164" as="targetPoint" />
            <Array as="points">
              <mxPoint x="-351" y="145" />
              <mxPoint x="-351" y="164" />
            </Array>
          </mxGeometry>
        </mxCell>
        <mxCell id="r59WrNXMarwCxPcRgeq0-72" value="hybridAuth" style="text;strokeColor=none;align=center;fillColor=none;html=1;verticalAlign=middle;whiteSpace=wrap;rounded=0;" vertex="1" parent="1">
          <mxGeometry x="-342" y="147" width="68" height="12" as="geometry" />
        </mxCell>
        <mxCell id="r59WrNXMarwCxPcRgeq0-73" value="" style="endArrow=classic;html=1;rounded=0;edgeStyle=orthogonalEdgeStyle;" edge="1" parent="1">
          <mxGeometry width="50" height="50" relative="1" as="geometry">
            <mxPoint x="-391" y="421" as="sourcePoint" />
            <mxPoint x="-390" y="440" as="targetPoint" />
            <Array as="points">
              <mxPoint x="-351" y="421" />
              <mxPoint x="-351" y="440" />
            </Array>
          </mxGeometry>
        </mxCell>
        <mxCell id="r59WrNXMarwCxPcRgeq0-74" value="update isSelfCheck&amp;nbsp;" style="text;strokeColor=none;align=center;fillColor=none;html=1;verticalAlign=middle;whiteSpace=wrap;rounded=0;" vertex="1" parent="1">
          <mxGeometry x="-342" y="423" width="68" height="12" as="geometry" />
        </mxCell>
        <mxCell id="r59WrNXMarwCxPcRgeq0-75" value="" style="endArrow=classic;html=1;rounded=0;exitX=-0.236;exitY=0.102;exitDx=0;exitDy=0;exitPerimeter=0;" edge="1" parent="1">
          <mxGeometry width="50" height="50" relative="1" as="geometry">
            <mxPoint x="-401.9999999999999" y="439.998" as="sourcePoint" />
            <mxPoint x="-691" y="440.03" as="targetPoint" />
          </mxGeometry>
        </mxCell>
        <mxCell id="r59WrNXMarwCxPcRgeq0-76" value="return user" style="text;strokeColor=none;align=center;fillColor=none;html=1;verticalAlign=middle;whiteSpace=wrap;rounded=0;" vertex="1" parent="1">
          <mxGeometry x="-680" y="440" width="250" height="10" as="geometry" />
        </mxCell>
        <mxCell id="r59WrNXMarwCxPcRgeq0-78" style="edgeStyle=orthogonalEdgeStyle;rounded=0;orthogonalLoop=1;jettySize=auto;html=1;exitX=0.5;exitY=1;exitDx=0;exitDy=0;" edge="1" parent="1" source="r59WrNXMarwCxPcRgeq0-31" target="r59WrNXMarwCxPcRgeq0-31">
          <mxGeometry relative="1" as="geometry" />
        </mxCell>
      </root>
    </mxGraphModel>
  </diagram>
</mxfile>
